<?xml version="1.0" encoding="UTF-8" standalone="no"?>
<!-- Created with Inkscape (http://www.inkscape.org/) -->
<svg
   xmlns:dc="http://purl.org/dc/elements/1.1/"
   xmlns:cc="http://web.resource.org/cc/"
   xmlns:rdf="http://www.w3.org/1999/02/22-rdf-syntax-ns#"
   xmlns:svg="http://www.w3.org/2000/svg"
   xmlns="http://www.w3.org/2000/svg"
   xmlns:sodipodi="http://inkscape.sourceforge.net/DTD/sodipodi-0.dtd"
   xmlns:inkscape="http://www.inkscape.org/namespaces/inkscape"
   width="744.09448819"
   height="1052.3622047"
   id="svg5432"
   sodipodi:version="0.32"
   inkscape:version="0.43"
   sodipodi:docbase="C:\Documents and Settings\dadam\My Documents\UCC"
   sodipodi:docname="ucc-logo.svg">
  <defs
     id="defs5434" />
  <sodipodi:namedview
     id="base"
     pagecolor="#ffffff"
     bordercolor="#666666"
     borderopacity="1.0"
     inkscape:pageopacity="0.0"
     inkscape:pageshadow="2"
     inkscape:zoom="0.35"
     inkscape:cx="375"
     inkscape:cy="520"
     inkscape:document-units="px"
     inkscape:current-layer="layer1"
     inkscape:window-width="756"
     inkscape:window-height="540"
     inkscape:window-x="154"
     inkscape:window-y="154" />
  <metadata
     id="metadata5437">
    <rdf:RDF>
      <cc:Work
         rdf:about="">
        <dc:format>image/svg+xml</dc:format>
        <dc:type
           rdf:resource="http://purl.org/dc/dcmitype/StillImage" />
      </cc:Work>
    </rdf:RDF>
  </metadata>
  <g
     inkscape:label="Layer 1"
     inkscape:groupmode="layer"
     id="layer1">
    <path
       style="fill:#000000"
       d="M 359.5356,606.97259 C 351.6981,599.04626 345.2856,592.10173 345.2856,591.5403 C 345.2856,590.97887 358.3356,577.48086 374.2856,561.54472 C 396.9032,538.94678 403.2856,532.01695 403.2856,530.05732 C 403.2856,528.67539 402.8356,527.54472 402.2856,527.54472 C 401.7356,527.54472 401.2856,526.37526 401.2856,524.94593 C 401.2856,523.34781 400.13044,521.26806 398.2856,519.54472 C 396.6356,518.00339 395.2856,516.2157 395.2856,515.57208 C 395.2856,514.92846 394.64274,513.75901 393.85703,512.97329 C 393.07131,512.18758 391.90186,511.54472 391.25824,511.54472 C 390.61462,511.54472 388.82693,510.19472 387.2856,508.54472 C 385.74427,506.89472 383.76372,505.54472 382.88439,505.54472 C 382.00506,505.54472 381.2856,505.09472 381.2856,504.54472 C 381.2856,503.99472 379.25493,503.54472 376.773,503.54472 L 372.26039,503.54472 L 343.27507,532.55526 L 314.28974,561.56581 L 299.78152,547.05759 L 285.27331,532.54938 L 317.77564,500.04705 C 335.65192,482.17077 350.95468,467.54472 351.78178,467.54472 C 352.60888,467.54472 353.2856,467.09472 353.2856,466.54472 C 353.2856,465.99472 354.6356,465.54472 356.2856,465.54472 C 357.9356,465.54472 359.2856,465.09472 359.2856,464.54472 C 359.2856,463.94472 363.2856,463.54472 369.2856,463.54472 C 375.2856,463.54472 379.2856,463.94472 379.2856,464.54472 C 379.2856,465.09472 381.0856,465.54472 383.2856,465.54472 C 385.4856,465.54472 387.2856,465.99472 387.2856,466.54472 C 387.2856,467.09472 388.1856,467.54472 389.2856,467.54472 C 390.3856,467.54472 391.2856,467.99472 391.2856,468.54472 C 391.2856,469.09472 392.1856,469.54472 393.2856,469.54472 C 394.3856,469.54472 395.2856,469.99472 395.2856,470.54472 C 395.2856,471.09472 396.1856,471.54472 397.2856,471.54472 C 398.3856,471.54472 399.2856,471.99472 399.2856,472.54472 C 399.2856,473.09472 400.00506,473.54472 400.88439,473.54472 C 401.76372,473.54472 403.74427,474.89472 405.2856,476.54472 C 406.82693,478.19472 408.5889,479.54472 409.2011,479.54472 C 410.76262,479.54472 427.2856,496.23257 427.2856,497.80968 C 427.2856,498.52111 428.1856,499.75188 429.2856,500.54472 C 430.3856,501.33756 431.2856,502.68756 431.2856,503.54472 C 431.2856,504.40188 432.1856,505.75188 433.2856,506.54472 C 434.3856,507.33756 435.2856,508.7869 435.2856,509.76548 C 435.2856,510.74406 435.7356,511.54472 436.2856,511.54472 C 436.8356,511.54472 437.2856,512.44472 437.2856,513.54472 C 437.2856,514.64472 437.7356,515.54472 438.2856,515.54472 C 438.8356,515.54472 439.2856,516.44472 439.2856,517.54472 C 439.2856,518.64472 439.7356,519.54472 440.2856,519.54472 C 440.8356,519.54472 441.2856,521.34472 441.2856,523.54472 C 441.2856,525.74472 441.7356,527.54472 442.2856,527.54472 C 442.8856,527.54472 443.2856,531.54472 443.2856,537.54472 C 443.2856,543.54472 442.8856,547.54472 442.2856,547.54472 C 441.7356,547.54472 441.2856,548.89472 441.2856,550.54472 C 441.2856,552.19472 440.8356,553.54472 440.2856,553.54472 C 439.7356,553.54472 439.2856,554.22144 439.2856,555.04854 C 439.2856,556.25466 374.94333,621.75042 374.03942,621.46441 C 373.89982,621.42024 367.3731,614.89892 359.5356,606.97259 z M 461.53562,504.97259 C 453.6981,497.04626 447.2856,490.10173 447.2856,489.5403 C 447.2856,488.97887 460.33562,475.48086 476.28562,459.54472 C 498.90322,436.94678 505.28562,430.01695 505.28562,428.05732 C 505.28562,426.67539 504.83562,425.54472 504.28562,425.54472 C 503.73562,425.54472 503.28562,424.64472 503.28562,423.54472 C 503.28562,422.44472 502.83562,421.54472 502.28562,421.54472 C 501.73562,421.54472 501.28562,420.82526 501.28562,419.94593 C 501.28562,419.0666 499.93562,417.08605 498.28562,415.54472 C 496.63562,414.00339 495.28562,412.02284 495.28562,411.14351 C 495.28562,410.26418 494.56612,409.54472 493.68682,409.54472 C 492.80752,409.54472 490.82692,408.19472 489.28562,406.54472 C 487.56222,404.69988 485.48252,403.54472 483.88442,403.54472 C 482.45502,403.54472 481.28562,403.09472 481.28562,402.54472 C 481.28562,401.99472 479.70492,401.54472 477.77302,401.54472 C 474.50302,401.54472 472.25842,403.5484 445.27507,430.55526 L 416.28974,459.56581 L 401.78152,445.05759 L 387.27331,430.54938 L 419.77564,398.04705 C 437.65192,380.17077 452.95468,365.54472 453.78178,365.54472 C 454.60888,365.54472 455.2856,365.09472 455.2856,364.54472 C 455.2856,363.99472 456.6356,363.54472 458.2856,363.54472 C 459.93562,363.54472 461.28562,363.09472 461.28562,362.54472 C 461.28562,361.94472 465.28562,361.54472 471.28562,361.54472 C 477.28562,361.54472 481.28562,361.94472 481.28562,362.54472 C 481.28562,363.09472 483.08562,363.54472 485.28562,363.54472 C 487.48562,363.54472 489.28562,363.99472 489.28562,364.54472 C 489.28562,365.09472 490.18562,365.54472 491.28562,365.54472 C 492.38562,365.54472 493.28562,365.99472 493.28562,366.54472 C 493.28562,367.09472 494.18562,367.54472 495.28562,367.54472 C 496.38562,367.54472 497.28562,367.99472 497.28562,368.54472 C 497.28562,369.09472 498.08622,369.54472 499.06482,369.54472 C 500.04342,369.54472 501.49272,370.44472 502.28562,371.54472 C 503.07842,372.64472 504.34722,373.54472 505.10512,373.54472 C 505.86312,373.54472 507.74432,374.89472 509.28562,376.54472 C 510.82692,378.19472 512.59082,379.54472 513.20532,379.54472 C 514.66202,379.54472 527.28562,392.16826 527.28562,393.62499 C 527.28562,394.23951 528.63562,396.00339 530.28562,397.54472 C 531.93562,399.08605 533.28562,400.96725 533.28562,401.72517 C 533.28562,402.48309 534.18562,403.75188 535.28562,404.54472 C 536.38562,405.33756 537.28562,406.7869 537.28562,407.76548 C 537.28562,408.74406 537.73562,409.54472 538.28562,409.54472 C 538.83562,409.54472 539.28562,410.44472 539.28562,411.54472 C 539.28562,412.64472 539.73562,413.54472 540.28562,413.54472 C 540.83562,413.54472 541.28562,414.89472 541.28562,416.54472 C 541.28562,418.19472 541.73562,419.54472 542.28562,419.54472 C 542.83562,419.54472 543.28562,421.34472 543.28562,423.54472 C 543.28562,425.74472 543.73562,427.54472 544.28562,427.54472 C 544.86892,427.54472 545.28562,430.87805 545.28562,435.54472 C 545.28562,440.21139 544.86892,443.54472 544.28562,443.54472 C 543.73562,443.54472 543.28562,445.24538 543.28562,447.32396 C 543.28562,449.95603 542.67852,451.54077 541.28562,452.54472 C 540.18562,453.33756 539.28562,454.56367 539.28562,455.26942 C 539.28562,456.33037 476.83652,519.71645 476.03952,519.46441 C 475.89992,519.42024 469.37312,512.89892 461.53562,504.97259 z M 257.2856,498.54472 C 257.2856,497.99472 255.9356,497.54472 254.2856,497.54472 C 252.6356,497.54472 251.2856,497.09472 251.2856,496.54472 C 251.2856,495.99472 250.60888,495.54472 249.78178,495.54472 C 248.95468,495.54472 233.65192,480.91867 215.77564,463.04239 L 183.27331,430.54006 L 197.78152,416.03185 L 212.28974,401.52363 L 241.27507,430.53418 L 270.26039,459.54472 L 274.773,459.54472 C 277.25493,459.54472 279.2856,459.09472 279.2856,458.54472 C 279.2856,457.99472 280.08626,457.54472 281.06484,457.54472 C 282.04342,457.54472 283.49276,456.64472 284.2856,455.54472 C 285.07844,454.44472 286.31778,453.54472 287.03969,453.54472 C 287.76161,453.54472 289.91227,451.98472 291.81893,450.07805 C 293.7256,448.17139 295.2856,446.02073 295.2856,445.29881 C 295.2856,444.5769 296.1856,443.33756 297.2856,442.54472 C 298.3856,441.75188 299.2856,440.30254 299.2856,439.32396 C 299.2856,438.34538 299.7356,437.54472 300.2856,437.54472 C 300.8356,437.54472 301.2856,435.96405 301.2856,434.03212 C 301.2856,430.76215 299.2824,428.51806 272.2856,401.54472 C 256.3356,385.60858 243.2856,372.11044 243.2856,371.54885 C 243.2856,370.98726 249.80955,364.00382 257.78327,356.0301 L 272.28094,341.53243 L 304.78327,374.03476 C 322.65955,391.91104 337.2856,407.2138 337.2856,408.0409 C 337.2856,408.868 337.7356,409.54472 338.2856,409.54472 C 338.8356,409.54472 339.2856,410.89472 339.2856,412.54472 C 339.2856,414.19472 339.7356,415.54472 340.2856,415.54472 C 340.8856,415.54472 341.2856,419.54472 341.2856,425.54472 C 341.2856,431.54472 340.8856,435.54472 340.2856,435.54472 C 339.7356,435.54472 339.2856,437.34472 339.2856,439.54472 C 339.2856,441.74472 338.8356,443.54472 338.2856,443.54472 C 337.7356,443.54472 337.2856,444.44472 337.2856,445.54472 C 337.2856,446.64472 336.8356,447.54472 336.2856,447.54472 C 335.7356,447.54472 335.2856,448.44472 335.2856,449.54472 C 335.2856,450.64472 334.8356,451.54472 334.2856,451.54472 C 333.7356,451.54472 333.2856,452.44472 333.2856,453.54472 C 333.2856,454.64472 332.8356,455.54472 332.2856,455.54472 C 331.7356,455.54472 331.2856,456.34538 331.2856,457.32396 C 331.2856,458.30254 330.3856,459.75188 329.2856,460.54472 C 328.1856,461.33756 327.2856,462.56713 327.2856,463.27711 C 327.2856,464.96154 306.70242,485.54472 305.01799,485.54472 C 304.30801,485.54472 303.07844,486.44472 302.2856,487.54472 C 301.49276,488.64472 300.04342,489.54472 299.06484,489.54472 C 298.08626,489.54472 297.2856,489.99472 297.2856,490.54472 C 297.2856,491.09472 296.3856,491.54472 295.2856,491.54472 C 294.1856,491.54472 293.2856,491.99472 293.2856,492.54472 C 293.2856,493.09472 292.3856,493.54472 291.2856,493.54472 C 290.1856,493.54472 289.2856,493.99472 289.2856,494.54472 C 289.2856,495.09472 288.3856,495.54472 287.2856,495.54472 C 286.1856,495.54472 285.2856,495.99472 285.2856,496.54472 C 285.2856,497.09472 283.4856,497.54472 281.2856,497.54472 C 279.0856,497.54472 277.2856,497.99472 277.2856,498.54472 C 277.2856,499.14472 273.2856,499.54472 267.2856,499.54472 C 261.2856,499.54472 257.2856,499.14472 257.2856,498.54472 z M 545.53562,386.96678 C 528.89812,370.23905 515.28562,355.97526 515.28562,355.26948 C 515.28562,354.5637 514.38562,353.33756 513.28562,352.54472 C 512.11112,351.69821 511.28562,349.95603 511.28562,348.32396 C 511.28562,346.79538 510.83562,345.54472 510.28562,345.54472 C 509.73562,345.54472 509.28562,343.29472 509.28562,340.54472 C 509.28562,337.79472 508.83562,335.54472 508.28562,335.54472 C 507.73562,335.54472 507.28562,334.64472 507.28562,333.54472 C 507.28562,332.44472 507.73562,331.54472 508.28562,331.54472 C 508.83562,331.54472 509.28562,329.29472 509.28562,326.54472 C 509.28562,323.79472 509.73562,321.54472 510.28562,321.54472 C 510.83562,321.54472 511.28562,319.74472 511.28562,317.54472 C 511.28562,315.34472 511.73562,313.54472 512.28562,313.54472 C 512.83562,313.54472 513.28562,312.64472 513.28562,311.54472 C 513.28562,310.44472 513.73562,309.54472 514.28562,309.54472 C 514.83562,309.54472 515.28562,308.74406 515.28562,307.76548 C 515.28562,306.7869 516.18562,305.33756 517.28562,304.54472 C 518.38562,303.75188 519.28562,302.40188 519.28562,301.54472 C 519.28562,300.68756 520.18562,299.33756 521.28562,298.54472 C 522.38562,297.75188 523.28562,296.52177 523.28562,295.81114 C 523.28562,294.23629 541.81072,275.54472 543.37162,275.54472 C 543.98292,275.54472 545.74432,274.19472 547.28562,272.54472 C 548.82692,270.89472 550.80752,269.54472 551.68682,269.54472 C 552.56612,269.54472 553.28562,269.09472 553.28562,268.54472 C 553.28562,267.99472 554.18562,267.54472 555.28562,267.54472 C 556.38562,267.54472 557.28562,267.09472 557.28562,266.54472 C 557.28562,265.99472 558.18562,265.54472 559.28562,265.54472 C 560.38562,265.54472 561.28562,265.09472 561.28562,264.54472 C 561.28562,263.99472 562.63562,263.54472 564.28562,263.54472 C 565.93562,263.54472 567.28562,263.09472 567.28562,262.54472 C 567.28562,261.99472 568.63562,261.54472 570.28562,261.54472 C 571.93562,261.54472 573.28562,261.09472 573.28562,260.54472 C 573.28562,259.95213 576.95232,259.54472 582.28562,259.54472 C 587.61892,259.54472 591.28562,259.95213 591.28562,260.54472 C 591.28562,261.09472 592.63562,261.54472 594.28562,261.54472 C 595.93562,261.54472 597.28562,261.99472 597.28562,262.54472 C 597.28562,263.09472 598.08622,263.54472 599.06482,263.54472 C 600.04342,263.54472 601.49272,264.44472 602.28562,265.54472 C 603.07842,266.64472 604.30462,267.54472 605.01042,267.54472 C 605.71622,267.54472 620.01972,281.27071 636.79592,298.04692 L 667.29812,328.54913 L 652.80032,343.04692 C 644.82652,351.02071 637.84302,357.54472 637.28152,357.54472 C 636.71992,357.54472 623.22172,344.49472 607.28562,328.54472 C 584.68762,305.92712 577.75782,299.54472 575.79822,299.54472 C 574.41632,299.54472 573.28562,299.99472 573.28562,300.54472 C 573.28562,301.09472 572.38562,301.54472 571.28562,301.54472 C 570.18562,301.54472 569.28562,301.99472 569.28562,302.54472 C 569.28562,303.09472 568.48492,303.54472 567.50632,303.54472 C 566.52782,303.54472 565.07842,304.44472 564.28562,305.54472 C 563.49272,306.64472 562.24802,307.54472 561.51942,307.54472 C 559.80242,307.54472 555.28562,312.0615 555.28562,313.77851 C 555.28562,314.50709 554.38562,315.75188 553.28562,316.54472 C 552.18562,317.33756 551.28562,318.7869 551.28562,319.76548 C 551.28562,320.74406 550.83562,321.54472 550.28562,321.54472 C 549.73562,321.54472 549.28562,323.57539 549.28562,326.05732 L 549.28562,330.56993 L 578.29612,359.55525 L 607.30672,388.54058 L 592.80462,403.04265 C 584.82852,411.01879 577.73622,417.50785 577.04412,417.46279 C 576.35192,417.41772 562.17312,403.69452 545.53562,386.96678 z M 153.2856,396.54472 C 153.2856,395.99472 152.3856,395.54472 151.2856,395.54472 C 150.1856,395.54472 149.2856,395.09472 149.2856,394.54472 C 149.2856,393.99472 148.60888,393.54472 147.78178,393.54472 C 146.95468,393.54472 131.65192,378.91867 113.77564,361.04239 L 81.273311,328.54006 L 95.781521,314.03185 L 110.28974,299.52363 L 139.27507,328.53418 L 168.26039,357.54472 L 172.773,357.54472 C 175.25493,357.54472 177.2856,357.09472 177.2856,356.54472 C 177.2856,355.99472 178.08626,355.54472 179.06484,355.54472 C 180.04342,355.54472 181.49276,354.64472 182.2856,353.54472 C 183.07844,352.44472 184.31778,351.54472 185.03969,351.54472 C 185.76161,351.54472 187.91227,349.98472 189.81893,348.07805 C 191.7256,346.17139 193.2856,344.02073 193.2856,343.29881 C 193.2856,342.5769 194.1856,341.33756 195.2856,340.54472 C 196.3856,339.75188 197.2856,338.30254 197.2856,337.32396 C 197.2856,336.34538 197.7356,335.54472 198.2856,335.54472 C 198.8356,335.54472 199.2856,333.96405 199.2856,332.03212 C 199.2856,328.76215 197.2824,326.51806 170.2856,299.54472 C 154.3356,283.60858 141.2856,270.11044 141.2856,269.54885 C 141.2856,268.98726 147.80955,262.00382 155.78327,254.0301 L 170.28094,239.53243 L 202.78327,272.03476 C 220.65955,289.91104 235.2856,305.2138 235.2856,306.0409 C 235.2856,306.868 235.7356,307.54472 236.2856,307.54472 C 236.8356,307.54472 237.2856,308.89472 237.2856,310.54472 C 237.2856,312.19472 237.7356,313.54472 238.2856,313.54472 C 238.89166,313.54472 239.2856,317.87805 239.2856,324.54472 C 239.2856,331.21139 238.89166,335.54472 238.2856,335.54472 C 237.7356,335.54472 237.2856,336.89472 237.2856,338.54472 C 237.2856,340.19472 236.8356,341.54472 236.2856,341.54472 C 235.7356,341.54472 235.2856,342.89472 235.2856,344.54472 C 235.2856,346.19472 234.8356,347.54472 234.2856,347.54472 C 233.7356,347.54472 233.2856,348.34538 233.2856,349.32396 C 233.2856,350.30254 232.3856,351.75188 231.2856,352.54472 C 230.1856,353.33756 229.2856,354.68756 229.2856,355.54472 C 229.2856,356.40188 228.3856,357.75188 227.2856,358.54472 C 226.1856,359.33756 225.2856,360.56713 225.2856,361.27711 C 225.2856,362.96154 204.70242,383.54472 203.01799,383.54472 C 202.30801,383.54472 201.07844,384.44472 200.2856,385.54472 C 199.49276,386.64472 198.14276,387.54472 197.2856,387.54472 C 196.42844,387.54472 195.07844,388.44472 194.2856,389.54472 C 193.49276,390.64472 192.04342,391.54472 191.06484,391.54472 C 190.08626,391.54472 189.2856,391.99472 189.2856,392.54472 C 189.2856,393.09472 187.9356,393.54472 186.2856,393.54472 C 184.6356,393.54472 183.2856,393.99472 183.2856,394.54472 C 183.2856,395.09472 181.9356,395.54472 180.2856,395.54472 C 178.6356,395.54472 177.2856,395.99472 177.2856,396.54472 C 177.2856,397.15583 172.61893,397.54472 165.2856,397.54472 C 157.95227,397.54472 153.2856,397.15583 153.2856,396.54472 z M 443.5356,284.96678 C 426.8981,268.23905 413.2856,253.97526 413.2856,253.26948 C 413.2856,252.5637 412.3856,251.33756 411.2856,250.54472 C 410.11113,249.69821 409.2856,247.95603 409.2856,246.32396 C 409.2856,244.79538 408.8356,243.54472 408.2856,243.54472 C 407.67449,243.54472 407.2856,238.87805 407.2856,231.54472 C 407.2856,224.21139 407.67449,219.54472 408.2856,219.54472 C 408.8356,219.54472 409.2856,218.19472 409.2856,216.54472 C 409.2856,214.89472 409.7356,213.54473 410.2856,213.54473 C 410.8356,213.54473 411.2856,212.64473 411.2856,211.54473 C 411.2856,210.44473 411.7356,209.54473 412.2856,209.54473 C 412.8356,209.54473 413.2856,208.29407 413.2856,206.76549 C 413.2856,205.13342 414.11113,203.39124 415.2856,202.54473 C 416.3856,201.75189 417.2856,200.4831 417.2856,199.72518 C 417.2856,198.96726 418.6356,197.08606 420.2856,195.54473 C 421.9356,194.0034 423.2856,192.2406 423.2856,191.62739 C 423.2856,190.17319 437.91406,175.54473 439.36826,175.54473 C 439.98147,175.54473 441.74427,174.19473 443.2856,172.54473 C 444.82693,170.89473 446.70813,169.54473 447.46605,169.54473 C 448.22397,169.54473 449.49276,168.64473 450.2856,167.54473 C 451.07844,166.44473 452.52778,165.54473 453.50636,165.54473 C 454.48494,165.54473 455.2856,165.09473 455.2856,164.54473 C 455.2856,163.99473 456.1856,163.54473 457.2856,163.54473 C 458.3856,163.54473 459.2856,163.09473 459.2856,162.54473 C 459.2856,161.99473 460.63562,161.54473 462.28562,161.54473 C 463.93562,161.54473 465.28562,161.09473 465.28562,160.54473 C 465.28562,159.99473 467.08562,159.54473 469.28562,159.54473 C 471.48562,159.54473 473.28562,159.09473 473.28562,158.54473 C 473.28562,157.9614 476.61892,157.54473 481.28562,157.54473 C 485.95232,157.54473 489.28562,157.9614 489.28562,158.54473 C 489.28562,159.09473 490.63562,159.54473 492.28562,159.54473 C 493.93562,159.54473 495.28562,159.99473 495.28562,160.54473 C 495.28562,161.09473 496.08622,161.54473 497.06482,161.54473 C 498.04342,161.54473 499.49272,162.44473 500.28562,163.54473 C 501.07842,164.64473 502.30462,165.54473 503.01042,165.54473 C 503.71622,165.54473 518.01972,179.27072 534.79592,196.04693 L 565.29812,226.54913 L 550.80032,241.04692 C 542.82652,249.02071 535.84302,255.54472 535.28152,255.54472 C 534.71992,255.54472 521.22172,242.49472 505.28562,226.54472 C 482.68762,203.92713 475.75782,197.54473 473.79822,197.54473 C 472.41632,197.54473 471.28562,197.99473 471.28562,198.54473 C 471.28562,199.09473 470.38562,199.54473 469.28562,199.54473 C 468.18562,199.54473 467.28562,199.99473 467.28562,200.54473 C 467.28562,201.09473 466.56612,201.54473 465.68682,201.54473 C 464.80752,201.54473 462.82692,202.89473 461.28562,204.54473 C 459.74432,206.19473 457.76372,207.54473 456.88439,207.54473 C 456.00506,207.54473 455.2856,208.26419 455.2856,209.14352 C 455.2856,210.02285 453.9356,212.0034 452.2856,213.54473 C 450.6356,215.08605 449.2856,217.0666 449.2856,217.94593 C 449.2856,218.82526 448.8356,219.54472 448.2856,219.54472 C 447.7356,219.54472 447.2856,221.57539 447.2856,224.05732 L 447.2856,228.56993 L 476.29612,257.55525 L 505.30672,286.54058 L 490.80462,301.04265 C 482.82852,309.01879 475.73622,315.50785 475.04412,315.46279 C 474.35192,315.41772 460.17312,301.69452 443.5356,284.96678 z M 273.2856,296.54472 C 273.2856,295.99472 271.0356,295.54472 268.2856,295.54472 C 265.5356,295.54472 263.2856,295.09472 263.2856,294.54472 C 263.2856,293.99472 261.9356,293.54472 260.2856,293.54472 C 258.6356,293.54472 257.2856,293.09472 257.2856,292.54472 C 257.2856,291.99472 256.3856,291.54472 255.2856,291.54472 C 254.1856,291.54472 253.2856,291.09472 253.2856,290.54472 C 253.2856,289.99472 252.3856,289.54472 251.2856,289.54472 C 250.1856,289.54472 249.2856,289.09472 249.2856,288.54472 C 249.2856,287.99472 248.48494,287.54472 247.50636,287.54472 C 246.52778,287.54472 245.07844,286.64472 244.2856,285.54472 C 243.49276,284.44472 242.26364,283.54472 241.5542,283.54472 C 239.98271,283.54472 217.2856,261.01637 217.2856,259.45657 C 217.2856,258.84638 215.9356,257.08605 214.2856,255.54472 C 212.6356,254.00339 211.2856,252.02284 211.2856,251.14351 C 211.2856,250.26418 210.8356,249.54472 210.2856,249.54472 C 209.7356,249.54472 209.2856,248.64472 209.2856,247.54472 C 209.2856,246.44472 208.8356,245.54472 208.2856,245.54472 C 207.7356,245.54472 207.2856,244.19472 207.2856,242.54472 C 207.2856,240.89472 206.8356,239.54472 206.2856,239.54472 C 205.7356,239.54472 205.2856,238.19472 205.2856,236.54472 C 205.2856,234.89472 204.8356,233.54472 204.2856,233.54472 C 203.67954,233.54472 203.2856,229.21139 203.2856,222.54472 C 203.2856,215.87805 203.67954,211.54473 204.2856,211.54473 C 204.8356,211.54473 205.2856,210.29407 205.2856,208.76549 C 205.2856,207.13342 206.11113,205.39124 207.2856,204.54473 C 208.3856,203.75189 209.2856,202.52578 209.2856,201.82003 C 209.2856,201.11429 223.46162,186.36084 240.78787,169.03459 L 272.29014,137.53232 L 286.78787,152.03005 C 294.76162,160.0038 301.2856,166.98727 301.2856,167.54886 C 301.2856,168.11045 288.2356,181.60859 272.2856,197.54473 C 245.2888,224.51806 243.2856,226.76215 243.2856,230.03212 C 243.2856,231.96405 243.7356,233.54472 244.2856,233.54472 C 244.8356,233.54472 245.2856,234.44472 245.2856,235.54472 C 245.2856,236.64472 245.7356,237.54472 246.2856,237.54472 C 246.8356,237.54472 247.2856,238.22805 247.2856,239.06324 C 247.2856,241.70969 259.93788,253.54472 262.76708,253.54472 C 264.15227,253.54472 265.2856,253.99472 265.2856,254.54472 C 265.2856,255.09472 266.1856,255.54472 267.2856,255.54472 C 268.3856,255.54472 269.2856,255.99472 269.2856,256.54472 C 269.2856,259.8291 275.37198,254.48023 302.29593,227.53438 L 332.28187,197.52405 L 346.78983,212.03201 L 361.29778,226.53995 L 327.79539,260.04233 C 301.63372,286.20401 293.74442,293.54472 291.7893,293.54472 C 290.41227,293.54472 289.2856,293.99472 289.2856,294.54472 C 289.2856,295.09472 287.4856,295.54472 285.2856,295.54472 C 283.0856,295.54472 281.2856,295.99472 281.2856,296.54472 C 281.2856,297.09472 279.4856,297.54472 277.2856,297.54472 C 275.0856,297.54472 273.2856,297.09472 273.2856,296.54472 z M 373.2856,194.54473 C 373.2856,193.99473 371.4856,193.54473 369.2856,193.54473 C 367.0856,193.54473 365.2856,193.09473 365.2856,192.54473 C 365.2856,191.99473 363.9356,191.54473 362.2856,191.54473 C 360.6356,191.54473 359.2856,191.09473 359.2856,190.54473 C 359.2856,189.99473 358.3856,189.54473 357.2856,189.54473 C 356.1856,189.54473 355.2856,189.09473 355.2856,188.54473 C 355.2856,187.99473 354.3856,187.54473 353.2856,187.54473 C 352.1856,187.54473 351.2856,187.09473 351.2856,186.54473 C 351.2856,185.99473 350.48494,185.54473 349.50636,185.54473 C 348.52778,185.54473 347.07844,184.64473 346.2856,183.54473 C 345.49276,182.44473 344.23314,181.54473 343.48644,181.54473 C 342.73974,181.54473 340.39936,179.74473 338.2856,177.54473 C 336.17184,175.34473 333.93667,173.54473 333.31855,173.54473 C 331.8671,173.54473 327.2856,168.97346 327.2856,167.52526 C 327.2856,166.91455 325.0356,164.22331 322.2856,161.54473 C 319.5356,158.86615 317.2856,156.0697 317.2856,155.33041 C 317.2856,154.59112 316.3856,153.33757 315.2856,152.54473 C 314.1856,151.75189 313.2856,150.30255 313.2856,149.32397 C 313.2856,148.34539 312.8356,147.54473 312.2856,147.54473 C 311.7356,147.54473 311.2856,146.64473 311.2856,145.54473 C 311.2856,144.44473 310.8356,143.54473 310.2856,143.54473 C 309.7356,143.54473 309.2856,142.64473 309.2856,141.54473 C 309.2856,140.44473 308.8356,139.54473 308.2856,139.54473 C 307.7356,139.54473 307.2856,137.74473 307.2856,135.54473 C 307.2856,133.34473 306.8356,131.54473 306.2856,131.54473 C 305.67954,131.54473 305.2856,127.21139 305.2856,120.54473 C 305.2856,113.87806 305.67954,109.54473 306.2856,109.54473 C 306.8356,109.54473 307.2856,108.19473 307.2856,106.54473 C 307.2856,104.89473 307.7356,103.54473 308.2856,103.54473 C 308.8356,103.54473 309.2856,102.86796 309.2856,102.04079 C 309.2856,99.683927 371.91529,37.544727 374.29075,37.544727 C 376.34945,37.544727 403.2856,63.559927 403.2856,65.548237 C 403.2856,66.110167 390.2356,79.608587 374.2856,95.544727 C 347.2888,122.51807 345.2856,124.76216 345.2856,128.03212 C 345.2856,129.96406 345.7356,131.54473 346.2856,131.54473 C 346.8356,131.54473 347.2856,132.44473 347.2856,133.54473 C 347.2856,134.64473 347.7356,135.54473 348.2856,135.54473 C 348.8356,135.54473 349.2856,136.22806 349.2856,137.06325 C 349.2856,139.04102 361.78931,151.54473 363.76708,151.54473 C 364.60227,151.54473 365.2856,151.99473 365.2856,152.54473 C 365.2856,153.09473 366.6356,153.54473 368.2856,153.54473 C 369.9356,153.54473 371.2856,153.99473 371.2856,154.54473 C 371.2856,157.82911 377.37198,152.48024 404.29593,125.53439 L 434.28187,95.524047 L 448.78983,110.032 L 463.29782,124.53996 L 429.79539,158.04234 C 403.63372,184.20402 395.74442,191.54473 393.7893,191.54473 C 392.41227,191.54473 391.2856,191.99473 391.2856,192.54473 C 391.2856,193.09473 389.4856,193.54473 387.2856,193.54473 C 385.0856,193.54473 383.2856,193.99473 383.2856,194.54473 C 383.2856,195.09473 381.0356,195.54473 378.2856,195.54473 C 375.5356,195.54473 373.2856,195.09473 373.2856,194.54473 z "
       id="path5430" />
  </g>
</svg>
